<?xml version="1.0" standalone="no"?>
<!DOCTYPE svg PUBLIC "-//W3C//DTD SVG 20010904//EN"
 "http://www.w3.org/TR/2001/REC-SVG-20010904/DTD/svg10.dtd">
<svg version="1.0" xmlns="http://www.w3.org/2000/svg"
 width="1479.000000pt" height="1479.000000pt" viewBox="0 0 1479.000000 1479.000000"
 preserveAspectRatio="xMidYMid meet">
<metadata>
Created by potrace 1.14, written by Peter Selinger 2001-2017
</metadata>
<g transform="translate(0.000000,1479.000000) scale(0.100000,-0.100000)"
fill="#000000" stroke="none">
<path d="M7069 14336 c-2 -2 -53 -7 -114 -11 -60 -3 -121 -8 -135 -10 -14 -2
-56 -6 -95 -10 -38 -3 -81 -8 -95 -10 -14 -2 -61 -9 -105 -15 -44 -5 -98 -13
-120 -16 -44 -6 -278 -50 -310 -58 -11 -2 -51 -11 -90 -20 -335 -73 -823 -233
-1133 -372 -126 -57 -424 -206 -528 -264 -102 -58 -129 -74 -259 -154 -644
-399 -1245 -952 -1712 -1577 -96 -128 -297 -428 -355 -529 -312 -541 -502
-984 -657 -1535 -30 -108 -79 -306 -88 -355 -2 -14 -6 -33 -9 -43 -3 -10 -7
-32 -10 -50 -2 -18 -8 -54 -14 -82 -5 -27 -12 -63 -15 -80 -3 -16 -7 -41 -10
-54 -8 -44 -44 -324 -50 -396 -3 -38 -8 -85 -10 -104 -23 -202 -23 -868 0
-1021 2 -14 7 -61 10 -105 4 -44 9 -88 10 -97 2 -9 7 -48 10 -85 4 -37 8 -75
10 -83 2 -8 7 -35 10 -60 8 -53 62 -354 71 -390 12 -49 22 -105 20 -107 -1 -1
-132 -45 -291 -97 -1093 -359 -1005 -328 -999 -356 4 -14 15 -56 26 -94 11
-38 21 -78 24 -89 8 -46 109 -360 160 -501 30 -83 56 -157 59 -164 2 -7 5 -16
5 -20 1 -4 8 -17 16 -29 8 -13 12 -23 10 -23 -3 0 6 -26 20 -57 14 -32 29 -67
33 -78 5 -11 21 -46 35 -78 14 -32 26 -59 26 -62 0 -13 217 -458 267 -545 11
-19 35 -62 53 -95 125 -225 443 -719 500 -775 3 -3 21 -27 40 -55 19 -27 40
-57 47 -65 6 -8 51 -64 99 -125 262 -329 538 -621 889 -942 50 -45 104 -92
120 -104 17 -13 39 -32 50 -42 11 -11 36 -31 55 -46 19 -14 40 -31 45 -37 42
-47 425 -327 638 -467 365 -241 854 -500 1232 -653 61 -25 119 -49 130 -54
186 -86 892 -305 1111 -344 13 -3 32 -7 42 -10 9 -3 28 -7 42 -10 32 -6 142
-28 155 -30 6 -1 24 -5 40 -9 17 -3 46 -9 65 -11 19 -3 49 -8 65 -12 35 -7 51
-9 120 -18 28 -4 59 -9 70 -11 11 -2 43 -7 70 -10 28 -4 61 -8 75 -11 22 -3
105 -12 280 -29 174 -17 274 -20 665 -20 242 0 485 4 540 8 55 5 120 10 145
12 59 4 181 17 200 20 9 2 43 6 75 10 33 4 71 8 85 10 14 2 45 7 70 10 25 3
70 10 100 15 30 5 73 12 95 16 22 3 58 9 80 14 22 5 56 12 75 15 77 14 281 58
375 82 55 14 107 26 115 28 25 5 228 64 335 98 55 17 102 32 105 32 3 1 12 4
20 7 8 3 44 16 80 28 94 32 252 90 275 100 11 5 56 23 100 41 217 84 719 325
846 405 21 13 41 24 44 24 12 0 324 192 474 292 501 335 959 725 1367 1165 55
58 104 111 110 117 46 48 303 364 398 491 111 147 365 518 407 595 11 19 28
49 38 65 16 27 60 101 111 190 107 188 267 511 345 700 19 44 41 94 49 110 9
17 16 35 16 41 0 5 9 29 20 52 11 22 20 47 20 55 0 7 4 17 9 23 30 32 294 867
278 880 -1 1 -144 47 -317 103 -173 57 -324 106 -335 111 -11 5 -161 54 -333
110 l-314 102 7 25 c13 52 64 309 70 353 3 25 8 52 10 60 2 8 6 31 9 50 33
240 35 259 42 350 3 41 7 89 9 105 22 152 23 797 1 1000 -2 17 -7 64 -10 105
-4 41 -9 86 -11 100 -2 14 -6 52 -10 85 -4 32 -9 68 -11 80 -2 11 -6 40 -9 65
-6 52 -20 135 -40 235 -8 39 -16 81 -19 95 -2 14 -14 68 -26 120 -12 52 -23
103 -25 112 -42 203 -215 720 -315 943 -10 22 -28 65 -41 95 -25 61 -215 442
-252 505 -69 120 -103 178 -150 255 -53 85 -144 226 -160 245 -4 6 -53 73
-108 150 -92 127 -255 331 -355 444 -181 205 -463 481 -644 631 -41 35 -91 76
-110 93 -105 89 -472 352 -605 434 -161 98 -267 161 -327 194 -102 56 -418
210 -508 249 -41 18 -88 38 -105 45 -151 67 -604 223 -725 250 -8 2 -42 11
-75 20 -33 9 -87 23 -120 30 -33 7 -98 22 -145 33 -47 11 -101 23 -121 26 -20
3 -42 7 -50 10 -8 3 -34 8 -59 11 -46 7 -62 9 -115 18 -33 6 -86 13 -155 22
-25 4 -58 8 -75 11 -16 2 -50 6 -75 8 -94 9 -177 17 -220 22 -56 6 -786 15
-791 10z"/>
</g>
</svg>
